<?xml version="1.0" encoding="utf-8"?>
<!-- Generator: Adobe Illustrator 16.0.0, SVG Export Plug-In . SVG Version: 6.00 Build 0)  -->
<!DOCTYPE svg PUBLIC "-//W3C//DTD SVG 1.1//EN" "http://www.w3.org/Graphics/SVG/1.1/DTD/svg11.dtd">
<svg version="1.1" id="Layer_1" xmlns="http://www.w3.org/2000/svg" xmlns:xlink="http://www.w3.org/1999/xlink" x="0px" y="0px"
	 width="521px" height="462px" viewBox="45.5 168.5 521 462" enable-background="new 45.5 168.5 521 462" xml:space="preserve">
<g>
	
		<linearGradient id="SVGID_1_" gradientUnits="userSpaceOnUse" x1="416.8203" y1="311.1934" x2="504.8155" y2="244.8843" gradientTransform="matrix(0.6595 0 0 -0.6595 8.5101 625.1113)">
		<stop  offset="0" style="stop-color:#44A875"/>
		<stop  offset="0.398" style="stop-color:#108342"/>
		<stop  offset="0.81" style="stop-color:#153B23"/>
	</linearGradient>
	<path fill="url(#SVGID_1_)" d="M241.263,475.799c0,0,30.944-39.227,43.864-40.989c22.658-3.092,36.428,8.691,65.649-8.171
		c14.12-8.147,25.576-16.626,30.226-20.197c0.606-0.465,1.428,0.198,1.1,0.888C376.243,419.652,345.628,471.126,241.263,475.799z"/>
	
		<linearGradient id="SVGID_2_" gradientUnits="userSpaceOnUse" x1="422.7822" y1="340.1992" x2="580.9717" y2="340.1992" gradientTransform="matrix(0.6595 0 0 -0.6595 8.5101 625.1113)">
		<stop  offset="0" style="stop-color:#44A875"/>
		<stop  offset="0.398" style="stop-color:#108342"/>
		<stop  offset="0.7347" style="stop-color:#153B23"/>
	</linearGradient>
	<path fill="url(#SVGID_2_)" d="M287.328,421.189l11.509-16.498c0,0,49.802,13.933,92.814-26.186
		C391.651,378.505,366.124,433.585,287.328,421.189z"/>
	
		<linearGradient id="SVGID_3_" gradientUnits="userSpaceOnUse" x1="447.8125" y1="372.1309" x2="585.8945" y2="372.1309" gradientTransform="matrix(0.6595 0 0 -0.6595 8.5101 625.1113)">
		<stop  offset="0" style="stop-color:#44A875"/>
		<stop  offset="0.398" style="stop-color:#108342"/>
		<stop  offset="0.7347" style="stop-color:#153B23"/>
	</linearGradient>
	<path fill="url(#SVGID_3_)" d="M303.835,396.715l10.94-14.269c0,0,43.381,15.282,80.122-21.46
		C394.898,360.986,372.007,407.781,303.835,396.715z"/>
	
		<linearGradient id="SVGID_4_" gradientUnits="userSpaceOnUse" x1="468.917" y1="396.8057" x2="589.251" y2="396.8057" gradientTransform="matrix(0.6595 0 0 -0.6595 8.5101 625.1113)">
		<stop  offset="0" style="stop-color:#44A875"/>
		<stop  offset="0.398" style="stop-color:#108342"/>
		<stop  offset="0.7347" style="stop-color:#153B23"/>
	</linearGradient>
	<path fill="url(#SVGID_4_)" d="M328.939,361.216l-11.187,15.142c0,0,50.585,11.503,79.358-27.453
		C397.111,348.906,357.935,374.829,328.939,361.216z"/>
	
		<linearGradient id="SVGID_5_" gradientUnits="userSpaceOnUse" x1="490.584" y1="428.4961" x2="596.4121" y2="428.4961" gradientTransform="matrix(0.6595 0 0 -0.6595 8.5101 625.1113)">
		<stop  offset="0" style="stop-color:#44A875"/>
		<stop  offset="0.398" style="stop-color:#108342"/>
		<stop  offset="0.7347" style="stop-color:#153B23"/>
	</linearGradient>
	<path fill="url(#SVGID_5_)" d="M332.042,355.688l8.391-12.137c0,0,36.905,10.968,61.401-16.774
		C401.834,326.777,384.575,368.969,332.042,355.688z"/>
	
		<linearGradient id="SVGID_6_" gradientUnits="userSpaceOnUse" x1="513.6211" y1="460.5547" x2="605.3623" y2="460.5547" gradientTransform="matrix(0.6595 0 0 -0.6595 8.5101 625.1113)">
		<stop  offset="0" style="stop-color:#44A875"/>
		<stop  offset="0.398" style="stop-color:#108342"/>
		<stop  offset="0.7347" style="stop-color:#153B23"/>
	</linearGradient>
	<path fill="url(#SVGID_6_)" d="M347.234,334.155l8.251-12.379c0,0,30.116,11.493,52.251-15.364
		C407.736,306.413,394.456,345.96,347.234,334.155z"/>
	
		<linearGradient id="SVGID_7_" gradientUnits="userSpaceOnUse" x1="534.207" y1="484.6113" x2="605.3623" y2="484.6113" gradientTransform="matrix(0.6595 0 0 -0.6595 8.5101 625.1113)">
		<stop  offset="0" style="stop-color:#44A875"/>
		<stop  offset="0.398" style="stop-color:#108342"/>
		<stop  offset="0.7347" style="stop-color:#153B23"/>
	</linearGradient>
	<path fill="url(#SVGID_7_)" d="M360.811,313.496l6.788-9.149c0,0,21.249,10.919,40.138-9.149
		C407.736,295.197,395.637,324.12,360.811,313.496z"/>
	
		<linearGradient id="SVGID_8_" gradientUnits="userSpaceOnUse" x1="549.4209" y1="511.2314" x2="612.5234" y2="511.2314" gradientTransform="matrix(0.6595 0 0 -0.6595 8.5101 625.1113)">
		<stop  offset="0" style="stop-color:#44A875"/>
		<stop  offset="0.398" style="stop-color:#108342"/>
		<stop  offset="0.7347" style="stop-color:#153B23"/>
	</linearGradient>
	<path fill="url(#SVGID_8_)" d="M370.844,298.739l7.756-10.776c1.172-1.305,3.079-1.69,4.641-0.894
		c4.322,2.205,14.697,5.928,29.219-10.761C412.458,276.309,400.062,304.937,370.844,298.739z"/>
	
		<linearGradient id="SVGID_9_" gradientUnits="userSpaceOnUse" x1="616.8965" y1="604.0107" x2="647.6444" y2="586.2584" gradientTransform="matrix(0.6595 0 0 -0.6595 8.5101 625.1113)">
		<stop  offset="0" style="stop-color:#44A875"/>
		<stop  offset="0.398" style="stop-color:#108342"/>
		<stop  offset="0.7347" style="stop-color:#153B23"/>
	</linearGradient>
	<path fill="url(#SVGID_9_)" d="M385.897,277.784c0,0,43.384-76.734,79.686-91.196c0,0-27.342,24.88-41.497,62.01
		c-1.484,3.893-3.322,7.645-5.609,11.126c-9.578,14.582-20.174,20.532-32.579,19.24
		C385.897,278.965,385.405,278.793,385.897,277.784z"/>
	
		<linearGradient id="SVGID_10_" gradientUnits="userSpaceOnUse" x1="304.6323" y1="335.8506" x2="359.2803" y2="335.8506" gradientTransform="matrix(0.6595 0 0 -0.6595 8.5101 625.1113)">
		<stop  offset="0.1531" style="stop-color:#E48240"/>
		<stop  offset="0.4694" style="stop-color:#E7CC1D"/>
		<stop  offset="0.6927" style="stop-color:#DBBB26"/>
		<stop  offset="1" style="stop-color:#E48240"/>
	</linearGradient>
	<path fill="url(#SVGID_10_)" d="M217.665,480.008c0,0-27.933-103.11,18.967-152.768c0,0-16.564,49.802-3.793,69.314
		C245.971,416.621,258.357,423.452,217.665,480.008z"/>
	
		<linearGradient id="SVGID_11_" gradientUnits="userSpaceOnUse" x1="351.9736" y1="386.8901" x2="416.9688" y2="386.8901" gradientTransform="matrix(0.6595 0 0 -0.6595 8.5101 625.1113)">
		<stop  offset="0.1531" style="stop-color:#E48240"/>
		<stop  offset="0.4694" style="stop-color:#E7CC1D"/>
		<stop  offset="0.6927" style="stop-color:#DBBB26"/>
		<stop  offset="1" style="stop-color:#E48240"/>
	</linearGradient>
	<path fill="url(#SVGID_11_)" d="M253.536,429.343c0,0,20.505-38.02,2.223-67.943c-1.095-1.793-2.411-3.439-3.867-4.953
		c-12.771-13.271-17.977-34.721,2.339-44.249c6.883-3.229,15.117-1.51,20.058,4.268c2.938,3.437,5.733,8.656,7.755,16.544
		C288.942,359.91,269.86,416.237,253.536,429.343z"/>
	
		<linearGradient id="SVGID_12_" gradientUnits="userSpaceOnUse" x1="424.6699" y1="537.4902" x2="717.0283" y2="537.4902" gradientTransform="matrix(0.6595 0 0 -0.6595 8.5101 625.1113)">
		<stop  offset="0" style="stop-color:#E48240"/>
		<stop  offset="0.2959" style="stop-color:#E6B622"/>
		<stop  offset="0.7296" style="stop-color:#E7CC1D"/>
		<stop  offset="1" style="stop-color:#DBBB26"/>
	</linearGradient>
	<path fill="url(#SVGID_12_)" d="M481.378,173.681c0,0-81.388,22.289-94.263,61.38c-12.875,39.091-23.191,80.705-67.564,75.187
		c0,0,2.953,55.824-18.946,57.355c-0.11,0.008-0.221,0.012-0.33-0.001c-5.316-0.599-14.512-24.296-10.872-51.146
		c3.679-27.129,9.426-37.476,18.163-36.786c4.531,0.618,10.169,5.58,12.121,10.529c0.683,1.731,1.619,3.354,2.872,4.731
		c4.528,4.98,13.36,9.901,29.84-4.684c20.002-17.703,16.783-35.642,34.946-68.861S481.378,173.681,481.378,173.681z"/>
</g>
<g>
	<path fill="#097C3F" d="M84.392,545.783c0,4.645-2.249,8.243-6.746,10.797c-2.22,1.259-5.079,1.888-8.576,1.888
		c-1.111,0-2.026-0.01-2.748-0.028l-6.634-0.139c-2.369,0-4.201,0.056-5.496,0.167l-0.278-0.278v-0.777l0.139-0.333
		c1.369-0.869,2.109-1.415,2.22-1.638c0.167-0.333,0.268-1.563,0.306-3.691l0.083-6.218V531.46c0-4.403-0.121-7.271-0.361-8.604
		c-0.093-0.536-0.407-0.88-0.944-1.027c-0.277-0.074-1.36-0.167-3.248-0.278l-0.278-0.277v-1.888l0.278-0.25
		c1.646,0.111,4.478,0.167,8.493,0.167c2.554,0,4.857-0.046,6.911-0.139c1.628-0.073,3.007-0.111,4.136-0.111
		c5.163,0,8.549,1.175,10.159,3.525c0.851,1.24,1.277,2.665,1.277,4.274c0,2.627-1.027,4.82-3.081,6.578
		c-0.981,0.833-1.999,1.453-3.054,1.859c-1.221,0.463-2.553,0.86-3.997,1.193C80.579,536.818,84.392,539.918,84.392,545.783z
		 M74.704,528.213c0-4.089-2.129-6.134-6.384-6.134c-1.407,0-2.6,0.074-3.581,0.223c-0.074,1.941-0.111,3.737-0.111,5.384v7.66
		c0.426,0.038,1.277,0.057,2.554,0.057c3.349,0,5.551-1.073,6.606-3.221C74.398,530.943,74.704,529.62,74.704,528.213z
		 M75.898,546.644c0-5.551-2.915-8.326-8.744-8.326c-0.74,0-1.582,0.027-2.526,0.083v12.851c0,1.388,0.037,2.748,0.112,4.081
		c0.758,0.129,1.822,0.193,3.192,0.193c2.59,0,4.588-0.813,5.995-2.441C75.241,551.528,75.898,549.383,75.898,546.644z"/>
	<path fill="#097C3F" d="M120.946,558.163l-0.278,0.276c-2.775-0.093-4.524-0.138-5.245-0.138c-0.611,0-1.518,0.022-2.721,0.068
		s-2.1,0.069-2.692,0.069l-0.222-0.222c0.148-1.518,0.222-2.961,0.222-4.33c-0.963,0.722-2.646,2.258-5.052,4.607
		c-1.203,0.462-2.489,0.694-3.858,0.694c-2.498,0-4.468-0.681-5.912-2.041c-1.443-1.359-2.165-3.316-2.165-5.87
		c0-0.314,0.018-0.979,0.055-1.998c0.037-1.017,0.056-1.998,0.056-2.942v-3.552c0-3.665-0.139-5.792-0.417-6.385
		c-0.185-0.37-0.583-0.601-1.193-0.694c-0.222-0.037-1.037-0.083-2.443-0.139l-0.277-0.277v-1.554l0.277-0.306
		c3.534-0.315,7.115-1.083,10.742-2.304l0.611,0.36c-0.241,3.072-0.361,5.913-0.361,8.521v5.412c0,2.535,0.083,4.266,0.25,5.19
		c0.185,1.11,0.624,1.953,1.318,2.525c0.694,0.574,1.624,0.861,2.789,0.861c1.443,0,2.711-0.463,3.803-1.388
		c1.036-0.925,1.582-1.979,1.638-3.164c0.037-0.907,0.055-1.471,0.055-1.693v-4.968c0-3.626-0.138-5.755-0.416-6.385
		c-0.167-0.369-0.555-0.601-1.166-0.693c-0.222-0.037-1.037-0.084-2.443-0.139l-0.305-0.278v-1.554l0.305-0.305
		c3.516-0.315,7.096-1.083,10.742-2.304l0.583,0.36c-0.241,2.775-0.361,5.616-0.361,8.521v8.715c0,3.904,0.111,6.116,0.333,6.635
		c0.11,0.259,0.295,0.426,0.555,0.499c0.444,0.13,1.406,0.24,2.886,0.334l0.306,0.277L120.946,558.163L120.946,558.163z"/>
	<path fill="#097C3F" d="M171.6,558.163l-0.278,0.305c-1.073-0.111-2.979-0.166-5.718-0.166c-2.276,0-3.895,0.055-4.857,0.166
		l-0.388-0.527c0.295-4.607,0.444-7.966,0.444-10.075v-2.526c0-2.72-0.083-4.542-0.25-5.468c-0.204-1.11-0.666-1.998-1.388-2.664
		s-1.702-1-2.942-1c-1.388,0-2.544,0.39-3.47,1.166c-0.925,0.778-1.387,1.769-1.387,2.971v8.271l0.11,4.385
		c0.038,1.185,0.139,1.962,0.306,2.332c0.111,0.239,0.361,0.416,0.75,0.526c0.333,0.094,1.23,0.213,2.693,0.361l0.305,0.278v1.665
		l-0.333,0.305c-2.239-0.111-4.506-0.166-6.8-0.166c-2.85,0-5.292,0.055-7.328,0.166l-0.305-0.305v-1.638l0.277-0.333
		c1.166-0.111,1.971-0.212,2.415-0.306c0.333-0.073,0.573-0.352,0.722-0.833c0.111-0.352,0.175-1.378,0.194-3.081l0.056-8.965
		c0-2.072-0.158-3.553-0.472-4.44c-0.26-0.703-0.75-1.286-1.471-1.749c-0.648-0.426-1.499-0.639-2.554-0.639
		c-1.665,0-2.989,0.556-3.969,1.665c-0.463,0.519-0.735,0.935-0.819,1.25c-0.083,0.314-0.124,1.008-0.124,2.081v6.023
		c0,1.185,0.037,2.72,0.111,4.607c0.073,1.942,0.148,3.071,0.222,3.386c0.111,0.389,0.421,0.652,0.929,0.791
		c0.509,0.139,1.282,0.218,2.318,0.236l0.277,0.277v1.693l-0.277,0.277c-1.573-0.111-3.923-0.167-7.05-0.167
		c-3.312,0-5.838,0.064-7.577,0.194l-0.277-0.277v-1.693l0.277-0.277c1.776-0.056,2.877-0.194,3.303-0.417
		c0.371-0.166,0.574-0.61,0.611-1.332c0.129-2.405,0.194-4.987,0.194-7.744v-3.969c0-3.701-0.138-5.829-0.416-6.385
		c-0.185-0.37-0.583-0.601-1.193-0.693c-0.223-0.038-1.028-0.084-2.415-0.14l-0.278-0.277v-1.554l0.278-0.306
		c3.331-0.314,6.837-1.083,10.519-2.303l0.611,0.36l-0.055,4.412l4.94-3.997c0.907-0.406,1.98-0.61,3.22-0.61
		c2.127,0,3.784,0.347,4.968,1.041s2.138,1.91,2.859,3.649l5.052-4.08c0.906-0.426,2.007-0.639,3.303-0.639
		c3.571,0,6.051,1.295,7.439,3.887c0.611,1.147,0.916,2.904,0.916,5.272c0,0.98-0.01,1.712-0.028,2.193l-0.027,1.055
		c-0.038,0.889-0.056,1.48-0.056,1.776v3.608c0,2.794,0.046,4.575,0.139,5.343c0.092,0.768,0.305,1.254,0.638,1.457
		c0.333,0.205,1.277,0.324,2.831,0.361l0.278,0.306v1.64H171.6z"/>
	<path fill="#097C3F" d="M190.225,558.218l-0.278,0.278c-1.758-0.13-4.293-0.194-7.605-0.194s-5.838,0.064-7.577,0.194l-0.278-0.278
		v-1.692l0.278-0.277c1.776-0.056,2.876-0.195,3.302-0.417c0.371-0.166,0.573-0.611,0.611-1.332
		c0.129-2.405,0.195-4.987,0.195-7.744v-3.969c0-3.59-0.139-5.719-0.417-6.385c-0.149-0.37-0.546-0.601-1.194-0.694
		c-0.221-0.037-1.027-0.083-2.414-0.139l-0.278-0.277v-1.554l0.278-0.306c3.552-0.315,7.133-1.083,10.742-2.304l0.583,0.36
		c-0.241,3.368-0.362,6.209-0.362,8.521v8.854c0,1.351,0.065,3.229,0.195,5.635c0.037,0.722,0.24,1.166,0.61,1.332
		c0.426,0.222,1.527,0.361,3.304,0.417l0.305,0.277L190.225,558.218L190.225,558.218z M186.394,521.996
		c0,1.186-0.416,2.198-1.249,3.04c-0.833,0.841-1.831,1.263-2.997,1.263c-1.185,0-2.193-0.422-3.026-1.263
		c-0.833-0.842-1.249-1.855-1.249-3.04c0-1.222,0.421-2.247,1.262-3.08c0.842-0.833,1.846-1.25,3.012-1.25
		c1.147,0,2.142,0.417,2.984,1.25C185.974,519.749,186.394,520.774,186.394,521.996z"/>
	<path fill="#097C3F" d="M210.292,554.665c-0.129,0.149-0.528,0.537-1.194,1.166c-1.092,1.037-2.026,1.98-2.803,2.831
		c-0.907,0.296-1.823,0.444-2.748,0.444c-2.572,0-4.45-0.75-5.635-2.248c-0.499-0.646-0.832-1.396-0.999-2.248
		c-0.186-1.018-0.269-2.35-0.25-3.997l0.083-6.634v-6.939h-0.749l-1.471,0.057h-1.138l-0.306-0.25v-0.723l0.222-0.416
		c0.333-0.222,0.851-0.555,1.555-1c0.833-0.518,1.461-0.952,1.887-1.304v-3.775c0-1.572-0.074-3.238-0.222-4.996
		c1.388-0.444,2.512-0.838,3.372-1.18c0.86-0.343,2.077-0.902,3.649-1.679l0.722,0.555c-0.222,2.295-0.379,4.349-0.472,6.162
		l-0.25,4.802h0.916c2.018,0,3.756-0.065,5.218-0.195l0.306,0.307l-0.389,3.247l-0.277,0.277h-5.774v9.41
		c0,3.016,0.037,4.793,0.111,5.329c0.092,0.776,0.421,1.406,0.985,1.887c0.564,0.481,1.328,0.722,2.29,0.722
		c0.759,0,1.675-0.203,2.748-0.61L210.292,554.665z"/>
	<path fill="#097C3F" d="M237.853,558.135l-0.305,0.305c-1.554-0.093-3.34-0.138-5.357-0.138c-1.573,0-3.081,0.045-4.524,0.138
		l-0.249-0.305l0.249-3.72l-5.384,4.107c-0.426,0.315-1.037,0.509-1.832,0.583c-0.315,0.037-0.685,0.056-1.111,0.056
		c-2.054,0-3.632-0.62-4.732-1.859c-1.101-1.239-1.651-2.951-1.651-5.135c0-2.887,0.916-4.931,2.748-6.134
		c1.98-1.313,5.968-2.498,11.963-3.554c0-2.941-0.777-4.912-2.331-5.911c-0.944-0.611-2.073-0.917-3.387-0.917
		c-1.443,0-2.581,0.296-3.414,0.889l-1.054,2.582l-0.362,0.193l-1.415-0.333l-0.194-0.389l0.139-3.275
		c3.053-2.258,5.347-3.533,6.883-3.83c0.648-0.13,1.49-0.194,2.526-0.194c3.645,0,6.245,0.952,7.8,2.858
		c1.128,1.388,1.693,3.516,1.693,6.385c0,0.703-0.028,1.831-0.084,3.386c-0.093,2.591-0.138,4.321-0.138,5.19
		c0,2.794,0.045,4.575,0.138,5.344c0.093,0.768,0.31,1.253,0.652,1.457s1.162,0.324,2.457,0.36l0.278,0.306V558.135L237.853,558.135
		z M227.667,551.668v-6.829c-3.053,0.667-5.111,1.384-6.175,2.151c-1.063,0.768-1.596,1.938-1.596,3.512
		c0,2.516,1.101,3.774,3.303,3.774C225.066,554.276,226.557,553.407,227.667,551.668z"/>
	<path fill="#097C3F" d="M288.425,558.163l-0.278,0.305c-1.073-0.111-2.979-0.166-5.717-0.166c-2.276,0-3.895,0.055-4.857,0.166
		l-0.388-0.527c0.295-4.607,0.444-7.966,0.444-10.075v-2.526c0-2.72-0.083-4.542-0.25-5.468c-0.204-1.11-0.666-1.998-1.388-2.664
		s-1.702-1-2.942-1c-1.388,0-2.544,0.39-3.47,1.166c-0.925,0.778-1.387,1.769-1.387,2.971v8.271l0.111,4.385
		c0.038,1.185,0.139,1.962,0.305,2.332c0.111,0.239,0.361,0.416,0.75,0.526c0.333,0.094,1.229,0.213,2.692,0.361l0.306,0.278v1.665
		l-0.334,0.305c-2.239-0.111-4.505-0.166-6.8-0.166c-2.85,0-5.292,0.055-7.328,0.166l-0.305-0.305v-1.638l0.277-0.333
		c1.166-0.111,1.971-0.212,2.415-0.306c0.333-0.073,0.573-0.352,0.722-0.833c0.111-0.352,0.175-1.378,0.194-3.081l0.056-8.965
		c0-2.072-0.158-3.553-0.472-4.44c-0.26-0.703-0.75-1.286-1.471-1.749c-0.648-0.426-1.499-0.639-2.554-0.639
		c-1.665,0-2.989,0.556-3.969,1.665c-0.463,0.519-0.735,0.935-0.819,1.25c-0.083,0.314-0.124,1.008-0.124,2.081v6.023
		c0,1.185,0.037,2.72,0.111,4.607c0.073,1.942,0.148,3.071,0.222,3.386c0.111,0.389,0.421,0.652,0.93,0.791
		c0.508,0.139,1.281,0.218,2.318,0.236l0.278,0.277v1.693l-0.278,0.277c-1.573-0.111-3.922-0.167-7.05-0.167
		c-3.312,0-5.838,0.064-7.577,0.194l-0.278-0.277v-1.693l0.278-0.277c1.776-0.056,2.876-0.194,3.302-0.417
		c0.371-0.166,0.574-0.61,0.611-1.332c0.129-2.405,0.195-4.987,0.195-7.744v-3.969c0-3.701-0.139-5.829-0.417-6.385
		c-0.185-0.37-0.583-0.601-1.193-0.693c-0.223-0.038-1.028-0.084-2.415-0.14l-0.278-0.277v-1.554l0.278-0.306
		c3.331-0.314,6.837-1.083,10.519-2.303l0.611,0.36l-0.055,4.412l4.94-3.997c0.907-0.406,1.98-0.61,3.22-0.61
		c2.127,0,3.784,0.347,4.968,1.041s2.138,1.91,2.859,3.649l5.052-4.08c0.906-0.426,2.007-0.639,3.303-0.639
		c3.571,0,6.051,1.295,7.439,3.887c0.611,1.147,0.916,2.904,0.916,5.272c0,0.98-0.01,1.712-0.028,2.193l-0.027,1.055
		c-0.038,0.889-0.056,1.48-0.056,1.776v3.608c0,2.794,0.046,4.575,0.139,5.343c0.092,0.768,0.305,1.254,0.638,1.457
		c0.333,0.205,1.277,0.324,2.831,0.361l0.278,0.306v1.64H288.425z"/>
	<path fill="#097C3F" d="M316.818,558.135l-0.305,0.305c-1.554-0.093-3.34-0.138-5.357-0.138c-1.572,0-3.08,0.045-4.523,0.138
		l-0.25-0.305l0.25-3.72l-5.385,4.107c-0.426,0.315-1.036,0.509-1.832,0.583c-0.314,0.037-0.685,0.056-1.11,0.056
		c-2.054,0-3.632-0.62-4.732-1.859c-1.101-1.239-1.651-2.951-1.651-5.135c0-2.887,0.916-4.931,2.748-6.134
		c1.98-1.313,5.967-2.498,11.963-3.554c0-2.941-0.777-4.912-2.332-5.911c-0.943-0.611-2.072-0.917-3.386-0.917
		c-1.443,0-2.581,0.296-3.415,0.889l-1.054,2.582l-0.362,0.193l-1.415-0.333l-0.194-0.389l0.139-3.275
		c3.053-2.258,5.347-3.533,6.884-3.83c0.647-0.13,1.489-0.194,2.525-0.194c3.645,0,6.245,0.952,7.8,2.858
		c1.128,1.388,1.692,3.516,1.692,6.385c0,0.703-0.027,1.831-0.083,3.386c-0.094,2.591-0.139,4.321-0.139,5.19
		c0,2.794,0.045,4.575,0.139,5.344c0.093,0.768,0.31,1.253,0.652,1.457c0.342,0.204,1.161,0.324,2.456,0.36l0.277,0.306V558.135
		L316.818,558.135z M306.633,551.668v-6.829c-3.053,0.667-5.112,1.384-6.176,2.151s-1.596,1.938-1.596,3.512
		c0,2.516,1.101,3.774,3.303,3.774C304.033,554.276,305.522,553.407,306.633,551.668z"/>
	<path fill="#097C3F" d="M373.137,558.19l-0.25,0.277c-4.108-0.111-6.588-0.166-7.438-0.166c-3.404,0-6.569,0.055-9.493,0.166
		l-0.25-0.277v-1.749l0.277-0.305l2.415-0.139c1.018-0.056,1.526-0.417,1.526-1.083c0-0.389-0.26-1.258-0.777-2.609l-2.248-5.856
		c-2.553-0.037-5.163-0.056-7.827-0.056c-1.442,0-3.59,0.019-6.439,0.056l-1.222,3.387c-0.925,2.571-1.388,4.182-1.388,4.829
		c0,0.703,0.435,1.12,1.306,1.25c0.48,0.073,1.424,0.148,2.831,0.222l0.277,0.277v1.776l-0.277,0.277
		c-3.424-0.111-5.626-0.166-6.606-0.166c-0.759,0-2.637,0.055-5.635,0.166l-0.277-0.25v-1.804l0.306-0.278
		c1.905-0.11,3.075-0.489,3.511-1.138c0.434-0.647,2.067-4.506,4.898-11.574l7.245-18.124c0.536-1.406,1.351-3.525,2.441-6.356
		h3.942l14.711,34.611c0.573,1.314,1.091,2.054,1.554,2.22c0.611,0.223,1.489,0.333,2.637,0.333l0.25,0.306L373.137,558.19
		L373.137,558.19z M355.539,543.257l-5.94-14.544l-5.689,14.544c1.517,0.056,3.487,0.083,5.912,0.083
		C352.171,543.341,354.077,543.313,355.539,543.257z"/>
	<path fill="#097C3F" d="M405.499,560.217c0,4.052-1.513,7.28-4.538,9.687c-3.025,2.404-6.98,3.607-11.865,3.607
		c-3.83,0-6.86-0.717-9.09-2.151c-2.23-1.434-3.345-3.363-3.345-5.786c0-1.629,0.361-2.858,1.083-3.691
		c0.073-0.094,1.055-0.704,2.942-1.832c0.906-0.537,1.572-0.916,1.998-1.139c-2.554-0.443-3.831-1.674-3.831-3.691
		c0-1.073,0.371-2.165,1.11-3.275c0.056-0.073,0.556-0.444,1.499-1.11c0.444-0.314,1.23-0.879,2.359-1.693
		c-3.997-1.442-5.995-4.116-5.995-8.021c0-3.017,1.128-5.445,3.386-7.286c2.258-1.842,5.264-2.762,9.021-2.762
		c3.627,0,6.468,0.805,8.521,2.415c1.166,0.055,1.915,0.073,2.248,0.055c0.907-0.037,2.276-0.083,4.108-0.139l0.333,0.306
		l-0.306,2.859l-0.306,0.277h-4.107c0.24,0.889,0.36,1.795,0.36,2.72c0,4.404-2.137,7.41-6.411,9.021
		c-1.925,0.721-3.821,1.082-5.69,1.082c-0.629,0-1.442-0.046-2.442-0.139c-1.166,0.629-1.748,1.453-1.748,2.471
		c0,0.943,0.675,1.48,2.025,1.609c0.778,0.074,2.073,0.111,3.887,0.111c0.573,0,1.573-0.028,2.997-0.084
		c1.426-0.056,2.479-0.083,3.165-0.083c4.181,0,6.781,0.925,7.799,2.775C405.222,557.33,405.499,558.624,405.499,560.217z
		 M399.144,563.381c0-2.018-0.704-3.284-2.109-3.804c-0.593-0.222-1.776-0.343-3.553-0.36l-5.274-0.056
		c-0.592,0-1.406,0.018-2.442,0.056c-2.535,1.573-3.803,3.376-3.803,5.412c0,1.869,0.75,3.336,2.248,4.399s3.507,1.596,6.023,1.596
		c2.701,0,4.861-0.651,6.481-1.956C398.334,567.363,399.144,565.602,399.144,563.381z M394.092,540.815
		c0-4.663-1.563-6.995-4.691-6.995c-3.07,0-4.606,2.018-4.606,6.051c0,4.774,1.601,7.161,4.802,7.161
		C392.594,547.032,394.092,544.96,394.092,540.815z"/>
	<path fill="#097C3F" d="M428.148,531.489l-0.194,4.939c-0.019,0.814-0.056,1.74-0.111,2.776l-1.166,0.36
		c-0.869-1.258-2.072-1.887-3.608-1.887c-1.387,0-2.535,0.556-3.441,1.664c-0.556,0.686-0.833,1.693-0.833,3.026v6.495
		c0,1.351,0.064,3.229,0.194,5.635c0.037,0.685,0.231,1.128,0.583,1.332c0.351,0.204,1.637,0.343,3.858,0.417l0.277,0.25v1.692
		l-0.277,0.278c-2.721-0.112-5.423-0.167-8.105-0.167c-3.312,0-5.838,0.064-7.576,0.194l-0.278-0.277v-1.693l0.278-0.277
		c1.775-0.056,2.876-0.194,3.303-0.417c0.37-0.166,0.573-0.61,0.611-1.332c0.128-2.405,0.193-4.987,0.193-7.744v-3.969
		c0-3.701-0.139-5.83-0.416-6.385c-0.186-0.37-0.583-0.601-1.193-0.694c-0.223-0.037-1.027-0.083-2.415-0.139l-0.278-0.277v-1.554
		l0.278-0.306c3.331-0.315,6.837-1.083,10.52-2.304l0.61,0.36l-0.056,5.44c1.147-1.333,2.535-2.887,4.163-4.662
		c0.758-0.74,1.795-1.111,3.109-1.111C426.954,531.155,427.611,531.267,428.148,531.489z"/>
	<path fill="#097C3F" d="M445.551,558.218l-0.277,0.278c-1.758-0.13-4.293-0.194-7.605-0.194c-3.312,0-5.838,0.064-7.576,0.194
		l-0.278-0.278v-1.692l0.278-0.277c1.775-0.056,2.876-0.195,3.303-0.417c0.37-0.166,0.573-0.611,0.61-1.332
		c0.129-2.405,0.194-4.987,0.194-7.744v-3.969c0-3.59-0.139-5.719-0.416-6.385c-0.148-0.37-0.546-0.601-1.194-0.694
		c-0.222-0.037-1.026-0.083-2.414-0.139l-0.277-0.277v-1.554l0.277-0.306c3.553-0.315,7.133-1.083,10.741-2.304l0.583,0.36
		c-0.24,3.368-0.361,6.209-0.361,8.521v8.854c0,1.351,0.065,3.229,0.194,5.635c0.037,0.722,0.24,1.166,0.611,1.332
		c0.426,0.222,1.526,0.361,3.303,0.417l0.306,0.277L445.551,558.218L445.551,558.218z M441.721,521.996
		c0,1.186-0.416,2.198-1.249,3.04c-0.833,0.841-1.831,1.263-2.997,1.263c-1.185,0-2.193-0.422-3.025-1.263
		c-0.833-0.842-1.249-1.855-1.249-3.04c0-1.222,0.42-2.247,1.262-3.08s1.846-1.25,3.012-1.25c1.147,0,2.142,0.417,2.983,1.25
		C441.3,519.749,441.721,520.774,441.721,521.996z"/>
	<path fill="#097C3F" d="M493.681,549.03c-0.408,2.703-0.611,5.756-0.611,9.16l-0.278,0.277l-20.178-0.166
		c-3.368,0-5.746,0.055-7.133,0.166l-0.278-0.277v-0.777l0.139-0.333c1.369-0.869,2.109-1.415,2.221-1.638
		c0.166-0.333,0.268-1.563,0.306-3.691l0.083-6.218v-14.072c0-4.404-0.121-7.271-0.361-8.604c-0.093-0.536-0.406-0.879-0.943-1.027
		c-0.277-0.073-1.36-0.167-3.248-0.277l-0.277-0.277v-1.888l0.277-0.25c1.906,0.111,4.7,0.167,8.383,0.167
		c3.811,0,6.707-0.056,8.688-0.167l0.277,0.25v1.915l-0.277,0.25c-1.887,0.11-2.97,0.204-3.248,0.277
		c-0.536,0.148-0.851,0.491-0.944,1.027c-0.239,1.333-0.36,4.2-0.36,8.604v16.598c0,2.425,0.046,4.774,0.14,7.05h3.774
		c5.402,0,8.716-0.212,9.937-0.638c0.204-0.074,0.351-0.177,0.443-0.307c0.185-0.259,0.361-0.813,0.528-1.664l0.666-3.442
		l0.278-0.306h1.691L493.681,549.03z"/>
	<path fill="#097C3F" d="M514.274,554.665c-0.129,0.149-0.527,0.537-1.193,1.166c-1.093,1.037-2.026,1.98-2.804,2.831
		c-0.906,0.296-1.822,0.444-2.748,0.444c-2.572,0-4.45-0.75-5.635-2.248c-0.499-0.646-0.832-1.396-0.999-2.248
		c-0.186-1.018-0.269-2.35-0.25-3.997l0.083-6.634v-6.939h-0.749l-1.471,0.057h-1.138l-0.307-0.25v-0.723l0.223-0.416
		c0.333-0.222,0.851-0.555,1.555-1c0.832-0.518,1.461-0.952,1.887-1.304v-3.775c0-1.572-0.074-3.238-0.222-4.996
		c1.388-0.444,2.512-0.838,3.372-1.18c0.86-0.343,2.076-0.902,3.649-1.679l0.722,0.555c-0.222,2.295-0.379,4.349-0.472,6.162
		l-0.25,4.802h0.916c2.017,0,3.756-0.065,5.218-0.195l0.306,0.307l-0.389,3.247l-0.277,0.277h-5.773v9.41
		c0,3.016,0.036,4.793,0.111,5.329c0.092,0.776,0.421,1.406,0.985,1.887c0.563,0.481,1.327,0.722,2.289,0.722
		c0.759,0,1.675-0.203,2.748-0.61L514.274,554.665z"/>
	<path fill="#097C3F" d="M548.025,558.218l-0.277,0.278c-1.813-0.13-3.451-0.194-4.912-0.194c-1.388,0-3.267,0.064-5.635,0.194
		l-0.25-0.194c0.073-0.906,0.11-2.425,0.11-4.552c-0.666,0.555-1.619,1.406-2.858,2.553c-1.536,1.426-2.535,2.276-2.998,2.554
		c-0.592,0.278-1.554,0.416-2.886,0.416c-3.165,0-5.718-1.193-7.661-3.58c-1.942-2.387-2.914-5.478-2.914-9.271
		c0-3.683,0.749-6.551,2.248-8.604c0.389-0.536,1.535-1.489,3.441-2.859c2.221-1.591,3.839-2.599,4.857-3.025
		c0.889-0.37,2.017-0.556,3.387-0.556c1.924,0,3.72,0.408,5.384,1.223v-1.555c0-4.866-0.12-7.734-0.36-8.604
		c-0.13-0.48-0.509-0.777-1.139-0.888c-0.296-0.056-1.147-0.111-2.554-0.167l-0.277-0.306v-1.526l0.277-0.305
		c3.554-0.371,7.133-1.139,10.742-2.304l0.61,0.333c0,0.074-0.037,0.99-0.11,2.748c-0.167,3.978-0.25,9.955-0.25,17.93v8.965
		c0,5.2,0.12,8.06,0.36,8.577c0.148,0.315,0.352,0.509,0.61,0.583c0.407,0.13,1.333,0.25,2.776,0.36l0.277,0.278V558.218
		L548.025,558.218z M537.062,543.729v-5.219c-1.332-1.591-2.608-2.608-3.83-3.053c-0.833-0.295-1.721-0.444-2.664-0.444
		c-2.554,0-4.201,1.314-4.941,3.941c-0.406,1.462-0.61,3.091-0.61,4.885c0,3.831,0.896,6.671,2.692,8.521
		c0.944,0.98,2.212,1.471,3.803,1.471c1.313,0,2.535-0.416,3.664-1.249c1.018-0.74,1.619-1.536,1.804-2.387
		C537.034,549.938,537.062,547.781,537.062,543.729z"/>
	<path fill="#097C3F" d="M556.547,550.362c1.184,0,2.202,0.422,3.054,1.263c0.851,0.843,1.276,1.893,1.276,3.15
		c0,1.222-0.426,2.258-1.276,3.109c-0.852,0.851-1.87,1.276-3.054,1.276c-1.185,0-2.207-0.43-3.066-1.29
		c-0.86-0.861-1.291-1.892-1.291-3.095c0-1.222,0.426-2.263,1.277-3.123C554.316,550.793,555.344,550.362,556.547,550.362z"/>
</g>
<g>
	<path fill="#818285" d="M64.995,616.638h-14.47v-25.894h14.47v2.869H53.783v8.076h10.557v2.834H53.784v9.245h11.211V616.638z"/>
	<path fill="#818285" d="M75.222,606.701l-6.712-9.511h3.631l5.012,7.332l4.959-7.332h3.596l-6.713,9.511l7.084,9.936h-3.63
		l-5.295-7.758l-5.366,7.758H68.19L75.222,606.701z"/>
	<path fill="#818285" d="M97.598,616.991c-2.798,0-4.977-0.859-6.535-2.576c-1.559-1.718-2.338-4.184-2.338-7.395
		c0-3.258,0.787-5.771,2.364-7.536c1.576-1.765,3.822-2.648,6.738-2.648c0.945,0,1.881,0.098,2.808,0.293
		c0.927,0.194,1.691,0.445,2.294,0.753l-0.974,2.655c-1.641-0.614-3.041-0.921-4.198-0.921c-1.96,0-3.406,0.618-4.339,1.852
		c-0.933,1.234-1.399,3.073-1.399,5.517c0,2.35,0.467,4.147,1.399,5.394s2.314,1.869,4.145,1.869c1.712,0,3.394-0.378,5.047-1.134
		v2.833C101.265,616.643,99.594,616.991,97.598,616.991z"/>
	<path fill="#818285" d="M115.85,616.991c-2.917,0-5.205-0.882-6.863-2.647c-1.659-1.766-2.488-4.194-2.488-7.289
		c0-3.117,0.773-5.599,2.32-7.446c1.547-1.849,3.637-2.772,6.27-2.772c2.444,0,4.392,0.788,5.844,2.364
		c1.452,1.577,2.178,3.711,2.178,6.403v1.931h-13.318c0.06,2.207,0.62,3.885,1.683,5.029s2.568,1.718,4.517,1.718
		c1.039,0,2.024-0.092,2.957-0.274s2.024-0.54,3.277-1.072v2.799c-1.075,0.46-2.084,0.785-3.029,0.975
		C118.252,616.897,117.136,616.991,115.85,616.991z M115.052,599.439c-1.523,0-2.728,0.49-3.613,1.471
		c-0.886,0.98-1.412,2.344-1.577,4.091h9.901c-0.024-1.818-0.442-3.2-1.258-4.144C117.691,599.912,116.54,599.439,115.052,599.439z"
		/>
	<path fill="#818285" d="M131.584,616.638h-3.188v-27.559h3.188V616.638z"/>
	<path fill="#818285" d="M141.298,616.638h-3.188v-27.559h3.188V616.638z"/>
	<path fill="#818285" d="M156.095,616.991c-2.917,0-5.205-0.882-6.863-2.647c-1.659-1.766-2.488-4.194-2.488-7.289
		c0-3.117,0.773-5.599,2.32-7.446c1.547-1.849,3.637-2.772,6.27-2.772c2.444,0,4.392,0.788,5.844,2.364
		c1.452,1.577,2.178,3.711,2.178,6.403v1.931h-13.318c0.06,2.207,0.62,3.885,1.683,5.029s2.568,1.718,4.517,1.718
		c1.039,0,2.024-0.092,2.957-0.274s2.024-0.54,3.277-1.072v2.799c-1.075,0.46-2.084,0.785-3.029,0.975
		C158.498,616.897,157.382,616.991,156.095,616.991z M155.298,599.439c-1.523,0-2.728,0.49-3.613,1.471
		c-0.886,0.98-1.412,2.344-1.577,4.091h9.901c-0.024-1.818-0.442-3.2-1.258-4.144C157.937,599.912,156.786,599.439,155.298,599.439z
		"/>
	<path fill="#818285" d="M181.89,616.638v-12.434c0-1.582-0.352-2.76-1.054-3.533c-0.702-0.773-1.804-1.16-3.303-1.16
		c-1.995,0-3.445,0.553-4.348,1.656c-0.903,1.104-1.355,2.901-1.355,5.393v10.078h-3.188v-19.446h2.568l0.479,2.656h0.177
		c0.602-0.956,1.446-1.697,2.533-2.223c1.086-0.525,2.285-0.788,3.595-0.788c2.385,0,4.156,0.578,5.313,1.735
		c1.158,1.158,1.736,2.958,1.736,5.402v12.663H181.89z"/>
	<path fill="#818285" d="M199.22,616.991c-2.798,0-4.977-0.859-6.535-2.576c-1.559-1.718-2.338-4.184-2.338-7.395
		c0-3.258,0.788-5.771,2.364-7.536c1.576-1.765,3.822-2.648,6.739-2.648c0.945,0,1.881,0.098,2.807,0.293
		c0.927,0.194,1.692,0.445,2.294,0.753l-0.974,2.655c-1.641-0.614-3.041-0.921-4.198-0.921c-1.96,0-3.406,0.618-4.339,1.852
		c-0.932,1.234-1.399,3.073-1.399,5.517c0,2.35,0.467,4.147,1.399,5.394c0.933,1.246,2.314,1.869,4.145,1.869
		c1.712,0,3.394-0.378,5.047-1.134v2.833C202.887,616.643,201.215,616.991,199.22,616.991z"/>
	<path fill="#818285" d="M217.471,616.991c-2.917,0-5.205-0.882-6.863-2.647s-2.488-4.194-2.488-7.289
		c0-3.117,0.773-5.599,2.32-7.446c1.547-1.849,3.637-2.772,6.27-2.772c2.444,0,4.392,0.788,5.844,2.364
		c1.452,1.577,2.178,3.711,2.178,6.403v1.931h-13.318c0.059,2.207,0.62,3.885,1.683,5.029c1.063,1.145,2.568,1.718,4.517,1.718
		c1.039,0,2.024-0.092,2.957-0.274s2.024-0.54,3.277-1.072v2.799c-1.075,0.46-2.084,0.785-3.029,0.975
		C219.874,616.897,218.758,616.991,217.471,616.991z M216.674,599.439c-1.523,0-2.728,0.49-3.613,1.471s-1.412,2.344-1.577,4.091
		h9.901c-0.023-1.818-0.442-3.2-1.257-4.144C219.313,599.912,218.162,599.439,216.674,599.439z"/>
	<path fill="#818285" d="M248.446,616.638h-3.276v-23.024h-8.094v-2.869h19.411v2.869h-8.041L248.446,616.638L248.446,616.638z"/>
	<path fill="#818285" d="M273.585,616.638v-12.434c0-1.582-0.352-2.76-1.054-3.533s-1.804-1.16-3.303-1.16
		c-1.972,0-3.416,0.549-4.33,1.647c-0.915,1.098-1.373,2.91-1.373,5.438v10.042h-3.188v-27.559h3.188v8.076
		c0,1.063-0.06,1.972-0.177,2.728h0.212c0.578-0.944,1.398-1.683,2.461-2.213c1.063-0.532,2.261-0.798,3.596-0.798
		c2.361,0,4.138,0.564,5.331,1.691c1.193,1.128,1.789,2.932,1.789,5.411v12.663H273.585z"/>
	<path fill="#818285" d="M292.19,596.836c0.862,0,1.624,0.071,2.285,0.213l-0.389,2.939c-0.721-0.165-1.423-0.248-2.108-0.248
		c-1.027,0-1.981,0.284-2.86,0.851s-1.567,1.35-2.063,2.347c-0.496,0.998-0.744,2.104-0.744,3.321v10.378h-3.188V597.19h2.622
		l0.354,3.56h0.142c0.744-1.287,1.624-2.261,2.639-2.923C289.894,597.167,290.998,596.836,292.19,596.836z"/>
	<path fill="#818285" d="M315.01,606.879c0,3.176-0.803,5.655-2.408,7.438c-1.606,1.782-3.826,2.674-6.659,2.674
		c-1.76,0-3.318-0.41-4.676-1.23c-1.358-0.82-2.403-1.998-3.136-3.533c-0.731-1.535-1.097-3.317-1.097-5.348
		c0-3.165,0.791-5.63,2.373-7.396c1.582-1.765,3.803-2.647,6.66-2.647c2.739,0,4.915,0.9,6.525,2.701
		C314.204,601.338,315.01,603.784,315.01,606.879z M300.327,606.879c0,2.443,0.48,4.301,1.443,5.569
		c0.963,1.27,2.382,1.904,4.26,1.904c1.854,0,3.265-0.635,4.232-1.904c0.969-1.269,1.452-3.126,1.452-5.569
		c0-2.444-0.486-4.283-1.461-5.518c-0.975-1.233-2.4-1.851-4.277-1.851C302.211,599.511,300.327,601.967,300.327,606.879z"/>
	<path fill="#818285" d="M323.431,597.19v12.521c0,1.57,0.351,2.735,1.054,3.498c0.703,0.761,1.792,1.142,3.268,1.142
		c1.995,0,3.448-0.555,4.357-1.664c0.909-1.11,1.362-2.899,1.362-5.367v-10.13h3.206v19.446h-2.621l-0.461-2.569h-0.158
		c-0.579,0.934-1.399,1.654-2.462,2.161c-1.063,0.508-2.297,0.762-3.701,0.762c-2.338,0-4.101-0.562-5.287-1.683
		c-1.188-1.122-1.78-2.917-1.78-5.384v-12.734L323.431,597.19L323.431,597.19z"/>
	<path fill="#818285" d="M356.186,616.46l0.107-2.392h-0.142c-1.312,1.949-3.318,2.923-6.022,2.923c-2.515,0-4.479-0.876-5.889-2.63
		c-1.411-1.753-2.116-4.224-2.116-7.411c0-3.129,0.711-5.597,2.133-7.404c1.423-1.806,3.368-2.709,5.836-2.709
		c2.634,0,4.664,0.98,6.093,2.94h0.195l0.425-2.586h2.533v19.765c0,2.787-0.705,4.883-2.117,6.288
		c-1.411,1.404-3.604,2.106-6.579,2.106c-2.834,0-5.166-0.413-6.996-1.239v-2.94c1.89,1.016,4.28,1.523,7.173,1.523
		c1.653,0,2.961-0.483,3.923-1.452c0.963-0.968,1.443-2.308,1.443-4.02V616.46L356.186,616.46z M350.607,614.388
		c1.96,0,3.386-0.529,4.276-1.585c0.892-1.057,1.338-2.755,1.338-5.092v-0.762c0-2.598-0.449-4.487-1.346-5.667
		c-0.897-1.182-2.345-1.771-4.34-1.771c-1.63,0-2.89,0.646-3.78,1.938c-0.893,1.293-1.338,3.138-1.338,5.534
		c0,2.409,0.434,4.245,1.303,5.509C347.588,613.756,348.883,614.388,350.607,614.388z"/>
	<path fill="#818285" d="M379.13,616.638v-12.434c0-1.582-0.352-2.76-1.054-3.533s-1.804-1.16-3.304-1.16
		c-1.972,0-3.415,0.549-4.33,1.647c-0.914,1.098-1.372,2.91-1.372,5.438v10.042h-3.188v-27.559h3.188v8.076
		c0,1.063-0.06,1.972-0.178,2.728h0.213c0.578-0.944,1.398-1.683,2.461-2.213c1.063-0.532,2.262-0.798,3.596-0.798
		c2.361,0,4.139,0.564,5.33,1.691c1.193,1.128,1.79,2.932,1.79,5.411v12.663H379.13z"/>
	<path fill="#818285" d="M419.634,603.442c0,4.274-1.166,7.542-3.497,9.803c-2.332,2.262-5.677,3.393-10.034,3.393h-7.208v-25.894
		h7.97c4.025,0,7.161,1.107,9.404,3.32C418.512,596.278,419.634,599.404,419.634,603.442z M416.198,603.549
		c0-3.294-0.812-5.788-2.435-7.482c-1.624-1.694-4.077-2.542-7.359-2.542h-4.25v20.314h3.524
		C412.691,613.839,416.198,610.408,416.198,603.549z"/>
	<path fill="#818285" d="M425.044,591.931c0-0.708,0.18-1.223,0.54-1.541s0.806-0.479,1.337-0.479c0.496,0,0.93,0.159,1.302,0.479
		c0.372,0.318,0.558,0.833,0.558,1.541c0,0.697-0.186,1.211-0.558,1.541c-0.371,0.33-0.806,0.496-1.302,0.496
		c-0.531,0-0.977-0.166-1.337-0.496S425.044,592.627,425.044,591.931z M428.479,616.638h-3.188v-19.446h3.188V616.638z"/>
	<path fill="#818285" d="M447.669,611.271c0,1.817-0.68,3.226-2.037,4.223c-1.358,0.999-3.265,1.497-5.722,1.497
		c-2.562,0-4.598-0.406-6.109-1.223v-2.904c2.137,1.039,4.196,1.559,6.181,1.559c1.606,0,2.774-0.26,3.507-0.779
		c0.731-0.52,1.098-1.217,1.098-2.09c0-0.768-0.352-1.416-1.054-1.948c-0.703-0.531-1.951-1.14-3.746-1.824
		c-1.83-0.709-3.117-1.313-3.86-1.815c-0.744-0.502-1.29-1.065-1.639-1.691c-0.348-0.626-0.522-1.388-0.522-2.284
		c0-1.595,0.649-2.852,1.948-3.773c1.299-0.921,3.082-1.381,5.349-1.381c2.208,0,4.274,0.437,6.198,1.31l-1.08,2.533
		c-1.972-0.826-3.749-1.239-5.331-1.239c-1.322,0-2.326,0.209-3.011,0.628c-0.685,0.42-1.027,0.995-1.027,1.727
		c0,0.709,0.295,1.296,0.886,1.763s1.966,1.113,4.126,1.938c1.618,0.603,2.813,1.163,3.587,1.684
		c0.772,0.52,1.343,1.104,1.709,1.753C447.485,609.582,447.669,610.361,447.669,611.271z"/>
	<path fill="#818285" d="M460.535,616.991c-2.798,0-4.977-0.859-6.535-2.576c-1.558-1.718-2.337-4.184-2.337-7.395
		c0-3.258,0.787-5.771,2.364-7.536c1.576-1.765,3.822-2.648,6.738-2.648c0.945,0,1.881,0.098,2.808,0.293
		c0.927,0.194,1.691,0.445,2.293,0.753l-0.974,2.655c-1.641-0.614-3.04-0.921-4.197-0.921c-1.96,0-3.406,0.618-4.339,1.852
		c-0.933,1.234-1.399,3.073-1.399,5.517c0,2.35,0.467,4.147,1.399,5.394s2.313,1.869,4.144,1.869c1.713,0,3.395-0.378,5.048-1.134
		v2.833C464.202,616.643,462.531,616.991,460.535,616.991z"/>
	<path fill="#818285" d="M470.268,591.931c0-0.708,0.179-1.223,0.54-1.541c0.36-0.318,0.806-0.479,1.337-0.479
		c0.495,0,0.93,0.159,1.302,0.479c0.372,0.318,0.558,0.833,0.558,1.541c0,0.697-0.186,1.211-0.558,1.541s-0.807,0.496-1.302,0.496
		c-0.532,0-0.978-0.166-1.337-0.496C470.446,593.142,470.268,592.627,470.268,591.931z M473.703,616.638h-3.188v-19.446h3.188
		V616.638z"/>
	<path fill="#818285" d="M489.438,616.991c-2.609,0-4.616-0.938-6.021-2.815h-0.213l0.071,0.726
		c0.095,0.921,0.142,1.742,0.142,2.462v7.987h-3.188v-28.16h2.622l0.425,2.656h0.142c0.756-1.063,1.63-1.83,2.622-2.302
		c0.991-0.473,2.137-0.709,3.436-0.709c2.526,0,4.49,0.877,5.89,2.63c1.398,1.753,2.099,4.225,2.099,7.412
		c0,3.176-0.702,5.655-2.107,7.438C493.948,616.1,491.978,616.991,489.438,616.991z M488.907,599.511
		c-1.924,0-3.314,0.543-4.17,1.63c-0.857,1.086-1.296,2.792-1.32,5.118v0.62c0,2.633,0.437,4.536,1.311,5.711
		s2.291,1.763,4.251,1.763c1.629,0,2.9-0.661,3.816-1.984c0.915-1.322,1.373-3.164,1.373-5.525c0-2.373-0.458-4.188-1.373-5.446
		C491.879,600.14,490.584,599.511,488.907,599.511z"/>
	<path fill="#818285" d="M506.095,616.638h-3.188v-27.559h3.188V616.638z"/>
	<path fill="#818285" d="M512.373,591.931c0-0.708,0.18-1.223,0.54-1.541s0.806-0.479,1.337-0.479c0.496,0,0.93,0.159,1.302,0.479
		c0.372,0.318,0.558,0.833,0.558,1.541c0,0.697-0.185,1.211-0.558,1.541c-0.371,0.33-0.806,0.496-1.302,0.496
		c-0.531,0-0.977-0.166-1.337-0.496S512.373,592.627,512.373,591.931z M515.81,616.638h-3.188v-19.446h3.188V616.638z"/>
	<path fill="#818285" d="M535.582,616.638v-12.434c0-1.582-0.352-2.76-1.054-3.533s-1.804-1.16-3.303-1.16
		c-1.995,0-3.445,0.553-4.349,1.656c-0.903,1.104-1.354,2.901-1.354,5.393v10.078h-3.188v-19.446h2.568l0.479,2.656h0.178
		c0.602-0.956,1.446-1.697,2.532-2.223s2.285-0.788,3.596-0.788c2.385,0,4.155,0.578,5.313,1.735
		c1.157,1.158,1.735,2.958,1.735,5.402v12.663H535.582z"/>
	<path fill="#818285" d="M553.391,616.991c-2.916,0-5.204-0.882-6.862-2.647c-1.659-1.766-2.488-4.194-2.488-7.289
		c0-3.117,0.773-5.599,2.32-7.446c1.547-1.849,3.637-2.772,6.27-2.772c2.444,0,4.393,0.788,5.845,2.364
		c1.452,1.577,2.178,3.711,2.178,6.403v1.931h-13.318c0.06,2.207,0.62,3.885,1.684,5.029c1.063,1.145,2.568,1.718,4.517,1.718
		c1.039,0,2.024-0.092,2.957-0.274s2.024-0.54,3.277-1.072v2.799c-1.075,0.46-2.084,0.785-3.029,0.975
		S554.678,616.991,553.391,616.991z M552.594,599.439c-1.523,0-2.728,0.49-3.613,1.471s-1.411,2.344-1.577,4.091h9.901
		c-0.023-1.818-0.442-3.2-1.258-4.144C555.233,599.912,554.082,599.439,552.594,599.439z"/>
</g>
</svg>
